<?xml version="1.0" encoding="UTF-8" standalone="no"?><svg xmlns="http://www.w3.org/2000/svg" version="1.1" width="4.0151356cm" height="4.0151356cm" viewBox="0 0 40.151356 40.151356"><g transform="translate(65.902575,-191.055)"><g style="fill:#b7b125;fill-opacity:1"><g id="sikessem-favicon" style="font-style:normal;font-weight:normal;font-size:3.3882823px;line-height:1.25;font-family:sans-serif;letter-spacing:0px;word-spacing:0px;fill:#54c166;fill-opacity:1;stroke:none;stroke-width:0.08470706" transform="matrix(9.8408705,0.22272606,-0.18682395,10.038629,-61.80101,193.44586)" aria-label="S"><path id="ske_logo-letter0" style="stroke-width:0.12769528;fill:#54c166;fill-opacity:1" d="m 0.86821601,1.9629435 c 0,0 -0.85508374,1.2260389 0.31296209,1.0980103 C 2.5160308,2.9146415 3.2070498,2.5214518 3.6825704,2.2710731 3.5246074,2.6250322 2.1042465,3.5360494 1.0370624,3.6967966 0.42555408,3.8160179 -0.17181047,3.776316 -0.31103082,3.3427897 -0.49400579,2.7730134 0.86821601,1.9629435 0.86821601,1.9629435 L -0.37697833,2.0969991 1.460367,1.450365 0.89697956,2.6763523 c 0,0 0.46102774,-0.1408145 0.99552244,-0.3298345 C 2.6148593,2.0910616 2.8367535,1.8640899 2.5734388,1.7723671 1.9791851,1.5653644 1.7132084,1.5097935 1.2819758,1.3801716 0.96997537,1.2863892 0.76645062,1.2346379 0.3443714,1.1012376 0.01810699,0.99812002 -0.48303387,0.89270354 -0.36775663,0.55061568 -0.27540931,0.2765552 0.26404606,0.06278687 0.69057353,-0.05010736 1.5952089,-0.28954857 3.3320458,-0.36951459 3.5820294,-0.13545039 3.7998008,0.06845122 3.4695687,0.22115782 2.665266,0.33423657 2.1103216,0.41225763 0.85543522,0.48798071 0.85543522,0.48798071 c 0,0 0.88257148,-0.14427789 1.27289978,-0.20662561 0.2906607,-0.0464278 1.338103,-0.35298498 0.5297616,-0.35672887 -0.2048433,-9.4658e-4 -0.7259148,0.0656942 -0.9988638,0.112692 C 1.4563028,0.07225938 0.94766688,0.18422925 0.73293734,0.34406377 0.57313111,0.46301516 0.88539311,0.5599759 1.3637511,0.69328326 L 2.3736249,0.96324434 C 3.2629969,1.2009926 3.588984,1.2250191 3.6695072,1.5829468 3.7408744,1.9002103 3.2511203,2.2264292 2.8208892,2.3673466 1.9931224,2.638473 1.4645697,2.6251956 0.89697956,2.6763523 Z" /></g></g></g></svg>
